<svg width="20" height="15" viewBox="0 0 20 15" fill="none" xmlns="http://www.w3.org/2000/svg">
<path d="M18.2896 7.375L14.6274 11.0371C13.1626 12.502 10.7896 12.502 9.354 11.0371C7.94775 9.63086 7.85986 7.4043 9.14893 5.93945L9.32471 5.76367C9.47119 5.55859 9.79346 5.5293 9.96924 5.70508C10.1743 5.88086 10.2036 6.17383 10.0278 6.37891L9.88135 6.55469C8.91455 7.66797 8.97314 9.33789 9.99854 10.3633C11.1118 11.4766 12.8696 11.4766 13.9829 10.3633L17.6157 6.73047C18.729 5.61719 18.729 3.85938 17.6157 2.74609C16.5317 1.66211 14.7446 1.66211 13.6606 2.74609L12.9868 3.41992C12.811 3.5957 12.5181 3.5957 12.313 3.41992C12.1372 3.21484 12.1372 2.92188 12.313 2.74609L12.9868 2.07227C14.4517 0.607422 16.8247 0.607422 18.2896 2.07227C19.7544 3.53711 19.7544 5.91016 18.2896 7.375ZM2.38135 7.375L6.04346 3.74219C7.5083 2.27734 9.85205 2.27734 11.3462 3.74219C12.7231 5.11914 12.811 7.3457 11.522 8.83984L11.3462 9.01562C11.1997 9.2207 10.9067 9.25 10.7017 9.07422C10.4966 8.89844 10.4673 8.60547 10.6431 8.40039L10.8188 8.22461C11.7563 7.11133 11.6978 5.44141 10.6724 4.41602C9.55908 3.30273 7.80127 3.30273 6.68799 4.41602L3.05518 8.04883C1.94189 9.16211 1.94189 10.9199 3.05518 12.0332C4.13916 13.1172 5.92627 13.1172 7.01025 12.0332L7.68408 11.3594C7.85986 11.1836 8.15283 11.1836 8.35791 11.3594C8.53369 11.5352 8.53369 11.8574 8.35791 12.0332L7.68408 12.6777C6.21924 14.1426 3.84619 14.1426 2.38135 12.6777C0.916504 11.2129 0.916504 8.83984 2.38135 7.375Z" fill="#C9CED6"/>
</svg>
