<svg width="20" height="16" viewBox="0 0 20 16" fill="none" xmlns="http://www.w3.org/2000/svg">
<path d="M1.70752 0.992188L19.5493 15.0547C19.7251 15.2012 19.7837 15.5234 19.6079 15.6992C19.4614 15.9043 19.1685 15.9629 18.9634 15.7871L1.15088 1.72461C0.945801 1.57812 0.887207 1.25586 1.06299 1.08008C1.20947 0.875 1.53174 0.816406 1.70752 0.992188ZM18.2896 8.375L16.1216 10.5723L15.3892 9.98633L17.6157 7.73047C18.729 6.61719 18.729 4.85938 17.6157 3.74609C16.5317 2.66211 14.7446 2.66211 13.6606 3.74609L12.9868 4.41992C12.811 4.5957 12.5181 4.5957 12.313 4.41992C12.1372 4.21484 12.1372 3.92188 12.313 3.74609L12.9868 3.07227C14.4517 1.60742 16.8247 1.60742 18.2896 3.07227C19.7544 4.53711 19.7544 6.91016 18.2896 8.375ZM13.104 12.9746C11.8149 13.3555 10.3794 13.0625 9.354 12.0371C8.56299 11.2461 8.18213 10.1914 8.27002 9.13672L9.23682 9.89844C9.32471 10.4551 9.58838 10.9531 9.99854 11.3633C10.5845 11.9492 11.3755 12.2422 12.1372 12.1836L13.104 12.9746ZM10.6724 5.41602V5.38672C10.0864 4.83008 9.29541 4.53711 8.53369 4.56641L7.56689 3.80469C8.85596 3.42383 10.3208 3.7168 11.3169 4.74219C12.1079 5.5332 12.4888 6.58789 12.4302 7.64258L11.4341 6.88086C11.3462 6.32422 11.0825 5.82617 10.6724 5.41602ZM5.31104 6.79297L3.05518 9.04883C1.94189 10.1621 1.94189 11.9199 3.05518 13.0332C4.13916 14.1172 5.92627 14.1172 7.01025 13.0332L7.68408 12.3594C7.85986 12.1836 8.15283 12.1836 8.35791 12.3594C8.53369 12.5352 8.53369 12.8574 8.35791 13.0332L7.68408 13.6777C6.21924 15.1426 3.84619 15.1426 2.38135 13.6777C0.916504 12.2129 0.916504 9.83984 2.38135 8.375L4.54932 6.20703L5.31104 6.79297Z" fill="#B0901E"/>
</svg>
